<svg xmlns="http://www.w3.org/2000/svg" width="66.737" height="70" viewBox="0 0 66.737 70">
  <g id="Groupe_2" data-name="Groupe 2" transform="translate(-235 -1209)">
    <path id="Vector" d="M13.724,1.472V15.8l-1.206.787H0L11.217,0,13.1.9Z" transform="translate(245.422 1258.754)" fill="#407093"/>
    <path id="Vector-2" data-name="Vector" d="M5.888,18.535H.715L0,17.749,12,0h.8l4.245,2.032Z" transform="translate(239.761 1256.803)" fill="#365e7d"/>
    <path id="Vector-3" data-name="Vector" d="M17.914,0a1.362,1.362,0,0,1,1.362,1.362V3.087a1.361,1.361,0,0,1-1.362,1.361H1.361A1.362,1.362,0,0,1,0,3.087V1.362A1.362,1.362,0,0,1,1.362,0H17.914Z" transform="translate(243.486 1274.552)" fill="#4a80aa"/>
    <path id="Vector-4" data-name="Vector" d="M8.768,3.087a1.361,1.361,0,0,0,1.361,1.361H1.362A1.361,1.361,0,0,1,0,3.087V1.362A1.362,1.362,0,0,1,1.362,0h8.768A1.362,1.362,0,0,0,8.768,1.362Z" transform="translate(235 1274.552)" fill="#407093"/>
    <path id="Vector-5" data-name="Vector" d="M8.475,7.107V8.847a7.8,7.8,0,0,1-3.339,2.092A7.986,7.986,0,0,1,.8,0Z" transform="translate(255.442 1248.983)" fill="#4a80aa"/>
    <path id="Vector-6" data-name="Vector" d="M5.117,5.667a7.793,7.793,0,0,0,5.231,7.359A7.789,7.789,0,0,1,2.447,0h1L5.9,2.272a7.748,7.748,0,0,0-.78,3.4Z" transform="translate(250.459 1246.819)" fill="#407093"/>
    <path id="Vector-7" data-name="Vector" d="M7.478.925a3.157,3.157,0,0,1,0,4.465L4.465,8.4l-.7-.163L0,4.319V3.938L3.013.925a3.157,3.157,0,0,1,4.465,0Z" transform="translate(293.334 1209)" fill="#ffd086"/>
    <path id="Vector-8" data-name="Vector" d="M8.31,2.415a4.044,4.044,0,0,0-3.341.918C4.363,3.94,3.182,5.161,1.994,6.4L0,4.319V3.938L3.013.925a3.152,3.152,0,0,1,5.3,1.49Z" transform="translate(293.334 1209)" fill="#ffc365"/>
    <path id="Vector-9" data-name="Vector" d="M35.874,5.54c-.035,0-.07,0-.1-.005L.953,2.108A1.056,1.056,0,0,1,1.16.005L35.976,3.432a1.057,1.057,0,0,1-.1,2.108Z" transform="translate(254.624 1212.41)" fill="#365e7d"/>
    <path id="Vector-10" data-name="Vector" d="M1.056,8.631A1.057,1.057,0,0,1,.789,6.553L25.639.035a1.056,1.056,0,0,1,.536,2.044L1.325,8.6a1.062,1.062,0,0,1-.269.035Z" transform="translate(264.59 1215.837)" fill="#407093"/>
    <path id="Vector-11" data-name="Vector" d="M4.461,36.95A1.057,1.057,0,0,1,3.411,36L.005,1.159a1.056,1.056,0,1,1,2.1-.205L5.513,35.791a1.057,1.057,0,0,1-.949,1.154c-.035,0-.07.005-.1.005Z" transform="translate(292.786 1219.186)" fill="#365e7d"/>
    <path id="Vector-12" data-name="Vector" d="M1.057,27.059A1.057,1.057,0,0,1,.036,25.732L6.65.786a1.056,1.056,0,1,1,2.042.541L2.078,26.273a1.057,1.057,0,0,1-1.02.786Z" transform="translate(286.168 1219.188)" fill="#407093"/>
    <path id="Vector-13" data-name="Vector" d="M0,0H4.272V6.313H0Z" transform="matrix(0.707, -0.707, 0.707, 0.707, 290.307, 1215.964)" fill="#ffc365"/>
    <path id="Vector-14" data-name="Vector" d="M0,3.021,3.021,0,5.243,2.222c-1.1,1.14-2.23,2.326-2.956,3.086Z" transform="translate(290.313 1212.938)" fill="#ffa90f"/>
    <path id="Vector-15" data-name="Vector" d="M6.866,7.922a1.053,1.053,0,0,1-.747-.309L.309,1.8A1.056,1.056,0,0,1,1.8.309l5.81,5.809a1.056,1.056,0,0,1-.747,1.8Z" transform="translate(288.585 1214.23)" fill="#4a80aa"/>
    <path id="Vector-16" data-name="Vector" d="M39.68,36.343C26.347,41.84,11.864,40.5,2.168,31.751-1.342,21.951-.528,10.587,4.161,0L39.532,35.678Z" transform="translate(256.6 1222.36)" fill="#b5dcff"/>
    <path id="Vector-17" data-name="Vector" d="M12.195,8.174c-4.881,10.758-5.544,22.4-1.465,32.188q-.937-.791-1.817-1.67C-.764,29.016-2.431,13.927,3.279.08L4.091,0Z" transform="translate(248.755 1214.376)" fill="#8bcaff"/>
    <path id="Vector-18" data-name="Vector" d="M38.905,37.8l-1.22,1.22a1.361,1.361,0,0,1-1.925,0L0,3.259A1.732,1.732,0,0,1,.507,2.047L2.067.487A1.73,1.73,0,0,1,3.032,0L38.905,35.874a1.362,1.362,0,0,1,0,1.925Z" transform="translate(260.46 1219.628)" fill="#dbedff"/>
    <path id="Vector-19" data-name="Vector" d="M9.329,10.729a1.7,1.7,0,0,0-.5,1.249L.4,3.544a1.361,1.361,0,0,1,0-1.925L1.619.4A1.362,1.362,0,0,1,3.544.4l8.316,8.316a1.7,1.7,0,0,0-1,.486L9.329,10.729Z" transform="translate(251.691 1210.973)" fill="#b5dcff"/>
  </g>
</svg>
