<svg xmlns="http://www.w3.org/2000/svg" width="50" height="50" viewBox="0 0 50 50">
  <g id="Groupe_3" data-name="Groupe 3" transform="translate(-1153 -1220)">
    <path id="Vector" d="M49.9,27.848a2.022,2.022,0,0,1-2.022,2.022H45.7a2.02,2.02,0,0,0-1.918,1.385,19.755,19.755,0,0,1-1.106,2.669,2.022,2.022,0,0,0,.375,2.339L44.591,37.8a2.022,2.022,0,0,1,0,2.859l-4.028,4.028a2.022,2.022,0,0,1-2.859,0L36.162,43.15a2.022,2.022,0,0,0-2.339-.375,19.756,19.756,0,0,1-2.669,1.106,2.02,2.02,0,0,0-1.248,1.187c-.089.228-.237.375-.237.63v2.179A2.022,2.022,0,0,1,27.647,49.9H22.253a2.022,2.022,0,0,1-2.022-2.022V45.7a2.02,2.02,0,0,0-1.385-1.918,22.931,22.931,0,0,1-2.87-1.207,2.022,2.022,0,0,0-2.339.375L12.1,44.491a2.022,2.022,0,0,1-2.859,0L5.409,40.664a2.022,2.022,0,0,1,0-2.859L6.85,36.263a2.022,2.022,0,0,0,.375-2.339,19.762,19.762,0,0,1-1.106-2.669A2.115,2.115,0,0,0,4.2,29.77H2.022A2.022,2.022,0,0,1,0,27.748v-5.5A2.022,2.022,0,0,1,2.022,20.23H4.2c.256,0,.4-.149.63-.237a2.02,2.02,0,0,0,1.187-1.248,19.754,19.754,0,0,1,1.106-2.669,2.022,2.022,0,0,0-.375-2.339L5.208,12.2a2.022,2.022,0,0,1,0-2.859L9.235,5.308a2.022,2.022,0,0,1,2.859,0L13.636,6.85a2.022,2.022,0,0,0,2.339.375,19.756,19.756,0,0,1,2.669-1.106A2.02,2.02,0,0,0,20.029,4.2V2.022A2.022,2.022,0,0,1,22.051,0h5.7a2.022,2.022,0,0,1,2.022,2.022V4.2a2.02,2.02,0,0,0,1.385,1.918,19.755,19.755,0,0,1,2.669,1.106,2.022,2.022,0,0,0,2.339-.375L37.7,5.308a2.022,2.022,0,0,1,2.859,0l4.028,4.028a2.022,2.022,0,0,1,0,2.859L43.05,13.737a2.022,2.022,0,0,0-.375,2.339,19.756,19.756,0,0,1,1.106,2.669A2.02,2.02,0,0,0,45.7,20.13h2.179A2.022,2.022,0,0,1,49.9,22.152v5.7Z" transform="translate(1153.101 1220)" fill="#b6c4cf"/>
    <path id="Vector-2" data-name="Vector" d="M30.007,25.075a2.023,2.023,0,0,0-.137.731v2.178a2.022,2.022,0,0,1-2.022,2.022h-5.7a2.022,2.022,0,0,1-2.022-2.022V25.807a2.021,2.021,0,0,0-1.385-1.919,19.77,19.77,0,0,1-2.668-1.106,2.022,2.022,0,0,0-2.339.374L12.2,24.7a2.023,2.023,0,0,1-2.86,0L5.308,20.671a2.024,2.024,0,0,1,0-2.86L6.85,16.27a2.022,2.022,0,0,0,.374-2.339,19.77,19.77,0,0,1-1.106-2.668A2.021,2.021,0,0,0,4.2,9.877H2.022A2.022,2.022,0,0,1,0,7.855v-5.7A2.022,2.022,0,0,1,2.022.137H4.2A2.023,2.023,0,0,0,4.932,0c0,.126,0,.253,0,.379a24.7,24.7,0,0,0,24.7,24.7c.127,0,.254,0,.379,0Z" transform="translate(1153 1239.993)" fill="#9facba"/>
    <path id="Vector-3" data-name="Vector" d="M33.2,16.6A16.6,16.6,0,1,1,16.6,0,16.6,16.6,0,0,1,33.2,16.6Z" transform="translate(1161.4 1228.4)" fill="#9facba"/>
    <path id="Vector-4" data-name="Vector" d="M26.157,13.078A13.078,13.078,0,1,1,13.078,0,13.078,13.078,0,0,1,26.157,13.078Z" transform="translate(1164.921 1231.922)" fill="#f8f7f7"/>
  </g>
</svg>
