<svg xmlns="http://www.w3.org/2000/svg" width="47" height="48" viewBox="0 0 47 48">
  <g id="Groupe_6" data-name="Groupe 6" transform="translate(-214 -2871)">
    <rect id="Rectangle_22" data-name="Rectangle 22" width="47" height="48" rx="13" transform="translate(214 2871)" fill="#006380"/>
    <path id="Vector" d="M2.561.439A1.5,1.5,0,1,1,1.5,0,1.5,1.5,0,0,1,2.561.439ZM2.03,2.03a.75.75,0,1,0-.53.22A.75.75,0,0,0,2.03,2.03Z" transform="translate(229 2897.125)" fill="#fff"/>
    <path id="Vector-2" data-name="Vector" d="M0,0H6.75V.75H0Z" transform="translate(234.625 2899)" fill="#fff"/>
    <path id="Vector-3" data-name="Vector" d="M0,0H6.75V.75H0Z" transform="translate(234.625 2897.5)" fill="#fff"/>
    <path id="Vector-4" data-name="Vector" d="M0,0H2.25V.75H0Z" transform="translate(236.875 2891.875)" fill="#fff"/>
    <path id="Vector-5" data-name="Vector" d="M22.5,8.625a1.122,1.122,0,0,1-.529.949,1.866,1.866,0,0,1,.529,1.3v4.5a1.12,1.12,0,0,1-.375.833v1.417A1.128,1.128,0,0,1,21,18.75H18a1.128,1.128,0,0,1-1.125-1.125V16.5H5.625v1.125A1.128,1.128,0,0,1,4.5,18.75h-3A1.128,1.128,0,0,1,.375,17.625V16.208A1.12,1.12,0,0,1,0,15.375v-4.5a1.866,1.866,0,0,1,.529-1.3A1.122,1.122,0,0,1,0,8.625v-.75A1.128,1.128,0,0,1,1.125,6.75H2.61l.78-2.726L3.619,3.1A1.125,1.125,0,0,1,4.71,2.25H7.875V.75A.752.752,0,0,1,8.625,0h5.25a.752.752,0,0,1,.75.75v1.5H17.79a1.125,1.125,0,0,1,1.091.851l.233.926L19.89,6.75h1.485A1.128,1.128,0,0,1,22.5,7.875v.75ZM8.625,2.25h5.25V.75H8.625ZM4.23,3.75H18.27l-.116-.465A.375.375,0,0,0,17.79,3H4.71a.375.375,0,0,0-.364.285ZM2.749,9H4.534A2.247,2.247,0,0,1,8.966,9H19.751L18.469,4.5H4.031ZM8.2,9A1.494,1.494,0,0,0,5.3,9ZM.75,8.625A.375.375,0,0,0,1.125,9h.844L2.4,7.5H1.125a.375.375,0,0,0-.375.375ZM4.875,16.5H1.125v1.125A.375.375,0,0,0,1.5,18h3a.375.375,0,0,0,.375-.375Zm16.5,0h-3.75v1.125A.375.375,0,0,0,18,18h3a.375.375,0,0,0,.375-.375ZM21.75,15H.75v.375a.375.375,0,0,0,.375.375h20.25a.375.375,0,0,0,.375-.375Zm0-4.125A1.128,1.128,0,0,0,20.625,9.75H1.875A1.128,1.128,0,0,0,.75,10.875V14.25h21Zm0-3a.375.375,0,0,0-.375-.375H20.1L20.531,9h.844a.375.375,0,0,0,.375-.375Z" transform="translate(226.75 2886.625)" fill="#fff"/>
  </g>
</svg>
