<svg xmlns="http://www.w3.org/2000/svg" width="47" height="48" viewBox="0 0 47 48">
  <g id="Groupe_4" data-name="Groupe 4" transform="translate(-214 -2647)">
    <rect id="Rectangle_21" data-name="Rectangle 21" width="47" height="48" rx="13" transform="translate(214 2647)" fill="#f0bb1f"/>
    <path id="Vector" d="M20.275-4.475V-17.525h1.181A.542.542,0,0,0,22-18.064v-3.392A.55.55,0,0,0,21.455-22H18.064a.549.549,0,0,0-.539.545v1.181H4.475v-1.181A.542.542,0,0,0,3.936-22H.545A.55.55,0,0,0,0-21.455v3.392a.549.549,0,0,0,.545.539H1.725V-4.475H.545A.542.542,0,0,0,0-3.936V-.545A.55.55,0,0,0,.545,0H3.936a.549.549,0,0,0,.539-.545V-1.725H17.524V-.545A.542.542,0,0,0,18.064,0h3.392A.543.543,0,0,0,22-.545V-3.936a.549.549,0,0,0-.545-.539ZM3.4-3.4v2.319H1.078V-3.4ZM3.4-18.6H1.078v-2.319H3.4Zm14.667,1.078H19.2V-4.475H18.064a.541.541,0,0,0-.539.539V-2.8H4.475V-3.936a.541.541,0,0,0-.539-.539H2.8V-17.525H3.936a.541.541,0,0,0,.539-.539V-19.2H17.525v1.132a.541.541,0,0,0,.539.539ZM18.6-18.6v-2.319h2.319V-18.6ZM20.922-3.4v2.319H18.6V-3.4Z" transform="translate(249 2660) rotate(180)" fill="#fff"/>
  </g>
</svg>
